# xmcd
#
# Track frame offsets:
#       155
#       22059
#       39558
#       52620
#       71143
#       86350
#       99460
#       115321
#       121988
#       141660
#       153865
#       169852
#       191294
#       207365
#       222837
#       241715
#
# Disc length: 3444 seconds
#
# Revision: 6
# Processed by: cddbd v1.5.2PL0 Copyright (c) Steve Scherf et al.
# Submitted via: FreeDbEdit v0.1
#
DISCID=d90d7210
DTITLE=Shania Twain - The Best
DYEAR=2002
DGENRE=Country
TTITLE0=From This Moment On
TTITLE1=Man I Feel Like a Woman!
TTITLE2=Come on Over
TTITLE3=Any Man of Mine
TTITLE4=You've Got a Way
TTITLE5=What Made You Say Thet
TTITLE6=You're Still the One
TTITLE7=God Bless the Child
TTITLE8=You Win My Love
TTITLE9=God Ain't Gonna Getcha for That
TTITLE10=Love Gets Me Everytime
TTITLE11=The Woman in Me (Needs the Man in You)
TTITLE12=Don't Be Stupid (You Know I Love You)
TTITLE13=I'm Holdin' on to Love (To Say My Life)
TTITLE14=From This Moment (Live With Backstreet Boys)
TTITLE15=You Are Still the One (Live)
EXTD=YEAR: 2002 ID3G:   2
EXTT0=
EXTT1=
EXTT2=
EXTT3=
EXTT4=
EXTT5=
EXTT6=
EXTT7=
EXTT8=
EXTT9=
EXTT10=
EXTT11=
EXTT12=
EXTT13=
EXTT14=
EXTT15=
PLAYORDER=
